<?xml version="1.0" encoding="utf-8"?>
<!-- Generator: Adobe Illustrator 25.2.3, SVG Export Plug-In . SVG Version: 6.00 Build 0)  -->
<svg version="1.1" id="Calque_1" xmlns="http://www.w3.org/2000/svg" xmlns:xlink="http://www.w3.org/1999/xlink" x="0px" y="0px"
	 viewBox="0 0 900 900" style="enable-background:new 0 0 900 900;" xml:space="preserve">
<style type="text/css">
	.st0{stroke:#000000;stroke-width:4;stroke-miterlimit:10;}
</style>
<g>
	<path class="st0" d="M362.8,258.29c0,24.3-24.12,35.46-62.64,35.46h-59.4c0,0,0-2.7,0-4.86c13.86,0,16.92-9.36,16.92-20.7v-74.7
		c0-11.34-3.06-20.7-16.92-20.7c0-2.16,0-5.04,0-5.04h52.92c38.52,0,59.22,9.18,59.22,31.14c0,13.68-9.18,22.32-23.76,27
		C350.74,230.57,362.8,241.19,362.8,258.29z M288.29,174.95v48.06h7.56c18.54,0,26.64-9.36,26.64-24.12
		c0-12.6-5.76-23.94-24.48-23.94H288.29z M330.22,258.29c0-16.38-9.72-28.26-30.78-28.26h-11.16v56.7h11.16
		C320.5,286.73,330.22,274.85,330.22,258.29z"/>
	<path class="st0" d="M480.7,282.05c-4.32,9.18-10.62,13.32-20.7,13.32c-12.06,0-20.16-4.32-22.5-14.4
		c-5.22,7.74-13.86,14.4-28.44,14.4c-18,0-30.96-9.36-31.14-31.86v-13.5c0-11.34,0.36-20.7-13.32-20.7c0-2.16,0-2.88,0-4.86
		c10.44,0,26.64-4.5,37.44-14.04c3.06,0,4.86,0,4.86,0v50.22c0,10.62,3.06,20.16,15.3,20.16c10.98,0,14.58-9.54,14.58-21.42v-9.36
		c0-11.34,0.36-20.7-13.32-20.7c0-2.16,0-2.88,0-4.86c10.44,0,26.64-4.5,37.62-14.04c3.06,0,4.86,0,4.86,0v57.6
		c0,8.64,0.18,14.76,4.5,16.02c3.06,0.9,5.4-0.72,7.2-3.78L480.7,282.05z"/>
	<path class="st0" d="M543.7,288.89c0,3.78,0,4.86,0,4.86h-59.4c0,0,0-2.7,0-4.86c13.68,0,15.48-9.36,15.48-20.7v-18.18
		c0-11.34-1.8-20.7-15.48-20.7c0-2.16,0-2.88,0-4.86c10.44,0,28.8-4.32,39.6-14.04c3.24,0,4.86,0,4.86,0v57.78
		C528.76,279.53,529.84,288.89,543.7,288.89z M493.31,184.85c0-9.36,8.1-17.1,18-17.1s18,7.74,18,17.1c0,9.36-8.1,17.1-18,17.1
		S493.31,194.21,493.31,184.85z"/>
	<path class="st0" d="M609.22,288.89c0,2.16,0,4.86,0,4.86H549.1c0,0,0-2.7,0-4.86c13.68,0,15.48-9.36,15.48-20.7v-60.66
		c0-11.34-1.8-20.7-15.48-20.7c0-2.16,0-3.06,0-5.04c10.44,0,28.8-4.32,39.78-14.04c3.06,0,4.86,0,4.86,0v100.44
		C593.74,279.53,595.36,288.89,609.22,288.89z"/>
	<path class="st0" d="M670.78,275.57c-4.68,11.16-11.7,19.8-25.02,19.8c-14.4,0-26.1-9.54-26.1-28.8c0,0,0-41.76,0-47.34h-14.04
		c0,0,0-4.86,0-7.02c17.82-0.9,33.84-10.98,37.62-30.42c3.06,0,5.58,0,5.58,0v30.42h19.08v7.02h-19.08v48.78
		c0,8.46,3.06,10.8,7.38,11.7c4.68,0.72,8.46-1.44,11.16-5.94L670.78,275.57z"/>
	<path class="st0" d="M340.58,478.61c-3.78,24.12-31.68,34.02-55.08,32.58c-22.68-1.44-45-11.16-48.42-28.08
		c-3.24-15.66,7.56-26.64,20.88-25.38c12.06,1.26,19.08,10.8,19.08,17.64c-7.92-0.54-16.2,3.96-13.86,15.84
		c1.62,8.28,10.44,12.78,23.04,13.5c16.2,0.9,26.28-7.02,28.08-16.56c2.7-15.3-9.9-20.88-29.34-30.78
		c-17.82-9.36-40.5-19.62-39.24-43.56c1.62-28.26,29.34-32.76,47.7-31.5c19.8,1.62,26.28,9.9,28.8-0.36c1.62,0,3.6,0,3.6,0
		l2.88,40.5h-5.58c-4.86-21.96-12.6-32.04-29.7-33.66c-11.16-1.08-22.14,4.32-22.68,15.12c-0.9,14.58,22.5,23.04,36.18,30.78
		C324.2,444.05,344.72,453.41,340.58,478.61z"/>
	<path class="st0" d="M441.73,468.89c0,25.38-19.62,42.48-46.62,42.48c-27.18,0-46.8-17.1-46.8-42.48s19.62-42.48,46.8-42.48
		C422.11,426.41,441.73,443.51,441.73,468.89z M412.21,465.83c-3.78-21.6-12.42-34.38-23.4-32.4s-14.58,16.92-10.8,38.52
		c3.78,21.42,12.42,34.2,23.22,32.4C412.21,502.37,415.99,487.43,412.21,465.83z"/>
	<path class="st0" d="M542.35,468.89c0,25.38-19.62,42.48-46.62,42.48c-27.18,0-46.8-17.1-46.8-42.48s19.62-42.48,46.8-42.48
		C522.73,426.41,542.35,443.51,542.35,468.89z M512.83,465.83c-3.78-21.6-12.42-34.38-23.4-32.4s-14.58,16.92-10.8,38.52
		c3.78,21.42,12.42,34.2,23.22,32.4C512.83,502.37,516.61,487.43,512.83,465.83z"/>
	<path class="st0" d="M671.59,504.89c0,3.78,0,4.86,0,4.86h-57.78c0,0,0-2.7,0-4.86c13.68,0,13.86-9.72,12.6-20.7
		c0,0-2.52-16.38-3.6-23.04c-1.62-10.62-2.88-20.34-15.3-20.34c-10.8,0-15.3,9.54-15.3,21.6v21.78c0,11.34,1.08,20.7,14.76,20.7
		c0,3.78,0,4.86,0,4.86h-59.22c0,0,0-2.7,0-4.86c13.68,0,15.48-9.36,15.48-20.7v-18.18c0-11.34-1.8-20.7-15.48-20.7
		c0-2.16,0-2.88,0-4.86c10.44,0,28.8-4.5,39.6-14.04c3.06,0,4.86,0,4.86,0v14.04c5.4-7.56,14.04-14.04,28.62-14.04
		c18.18,0,27.9,9.72,31.14,32.4c2.52,18,3.42,25.38,3.42,25.38C656.83,494.81,657.91,504.89,671.59,504.89z"/>
</g>
<g>
</g>
<g>
</g>
<g>
</g>
<g>
</g>
<g>
</g>
<g>
</g>
<g>
</g>
<g>
</g>
<g>
</g>
<g>
</g>
<g>
</g>
<g>
</g>
<g>
</g>
<g>
</g>
<g>
</g>
</svg>
